<svg width="210" height="132" viewBox="0 0 210 132" fill="none" xmlns="http://www.w3.org/2000/svg">
<g clip-path="url(#clip0_5_94)">
<path d="M65.5735 6.46005C67.8439 7.78722 68.4261 8.87852 68.984 11.222C70.1899 11.0077 70.1899 11.0077 71.4201 10.7891C71.601 10.0793 71.601 10.0793 71.7855 9.35512C72.4043 7.7332 72.7149 7.28 74.3434 6.46005C75.5856 7.82865 75.939 8.85234 75.8356 10.5727C75.5883 12.0956 75.224 12.7925 73.8562 13.7383C73.3739 14.0508 72.8915 14.3633 72.3946 14.6853C71.9344 15.6227 71.9344 15.6227 71.9073 16.4169C72.3413 16.3779 72.7753 16.3388 73.2225 16.2985C75.2727 16.4495 75.7978 16.9888 77.1754 18.3109C77.5504 18.6625 77.9253 19.014 78.3116 19.3762C79.9865 21.112 79.8759 22.7657 79.9465 24.9668C79.9729 25.3128 79.9992 25.6588 80.0264 26.0153C80.054 27.0786 80.0294 27.9458 79.7029 28.9712C78.9456 29.5372 78.9456 29.5372 78.0166 30.0518C76.5438 31.0152 76.3095 31.496 75.9255 33.1251C75.7501 34.7579 75.7251 36.3848 75.7406 38.0241C75.7442 39.0584 75.7011 40.0856 75.6547 41.1189C75.5715 44.8332 75.5715 44.8332 77.4728 48.0215C78.8174 48.9952 80.1773 49.8088 81.6517 50.6166C82.6277 51.3187 83.0636 51.6745 83.2933 52.785C83.2919 53.119 83.2906 53.453 83.2892 53.7972C83.2922 54.3735 83.2922 54.3735 83.2953 54.9616C83.29 55.3819 83.2848 55.8023 83.2793 56.2354C83.2796 56.679 83.2798 57.1225 83.28 57.5795C83.279 59.0482 83.2676 60.5168 83.2561 61.9855C83.2534 63.0028 83.2513 64.02 83.2499 65.0373C83.2443 67.7168 83.2299 70.3963 83.2138 73.0758C83.1988 75.8092 83.1921 78.5427 83.1848 81.2761C83.1691 86.641 83.1441 92.0058 83.1134 97.3706C86.0075 97.3706 88.9016 97.3706 91.8834 97.3706C91.8834 98.5135 91.8834 99.6563 91.8834 100.834C87.703 100.834 83.5227 100.834 79.2156 100.834C79.229 99.4117 79.2423 97.9896 79.256 96.5243C79.2961 91.8192 79.3066 87.1144 79.3028 82.4092C79.3013 79.557 79.3097 76.7054 79.3409 73.8533C79.3706 71.0995 79.3742 68.3465 79.3598 65.5926C79.3589 64.5433 79.3673 63.4941 79.3853 62.445C79.8251 56.7661 79.8251 56.7661 77.5445 51.727C76.1981 50.7434 74.9089 50.0319 73.369 49.3179C72.3705 48.618 71.9723 48.2955 71.7119 47.1873C71.7063 46.8737 71.7008 46.5601 71.695 46.237C71.681 45.7016 71.681 45.7016 71.6668 45.1554C71.6651 44.7712 71.6635 44.387 71.6618 43.9911C71.657 43.5945 71.6521 43.1979 71.6471 42.7893C71.6397 41.9502 71.6363 41.111 71.6365 40.2718C71.6333 38.9897 71.6068 37.709 71.579 36.427C71.5747 35.6114 71.5718 34.7958 71.5705 33.9801C71.56 33.5976 71.5495 33.2152 71.5386 32.8211C71.5711 30.225 71.5711 30.225 72.5466 29.0995C74.3964 27.6725 74.3964 27.6725 75.8051 27.6725C75.7758 26.7703 75.7325 25.8684 75.6833 24.9668C75.6607 24.4646 75.6381 23.9624 75.6148 23.4449C75.4238 22.0374 75.4238 22.0374 74.5338 21.0098C72.9554 20.0657 71.8489 20.0824 69.9585 20.0966C69.3656 20.0922 68.7727 20.0877 68.1618 20.0831C66.5378 20.2083 66.5378 20.2083 65.3812 21.0335C64.409 22.2904 64.2923 23.0691 64.2641 24.588C64.2311 25.2426 64.2311 25.2426 64.1975 25.9104C64.6583 27.4357 64.9076 27.5129 66.2957 28.3674C67.7224 29.4184 68.2627 30.0833 68.4895 31.7254C68.5282 32.4499 68.5467 33.1754 68.5482 33.9006C68.5617 34.4835 68.5617 34.4835 68.5756 35.0782C68.5885 35.8986 68.5925 36.7192 68.588 37.5397C68.5881 38.7837 68.6374 40.0212 68.69 41.2643C68.7986 47.4148 68.7986 47.4148 66.7014 49.6419C65.062 51.0937 63.2638 52.2921 61.1885 53.214C61.0277 54.2141 60.8669 55.2141 60.7013 56.2444C64.3993 56.2444 68.0973 56.2444 71.9073 56.2444C71.9073 70.9589 71.9073 85.6734 71.9073 100.834C66.9231 100.834 61.9388 100.834 56.8035 100.834C56.8035 91.6908 56.8035 82.5478 56.8035 73.1278C45.8703 73.1278 34.9371 73.1278 23.6725 73.1278C23.6725 82.2708 23.6725 91.4138 23.6725 100.834C19.6529 100.834 15.6334 100.834 11.492 100.834C11.492 99.691 11.492 98.5481 11.492 97.3706C14.2253 97.3706 16.9586 97.3706 19.7748 97.3706C19.7748 83.7989 19.7748 70.2273 19.7748 56.2444C31.9942 56.2444 44.2137 56.2444 56.8035 56.2444C56.8035 54.8158 56.8035 53.3872 56.8035 51.9153C57.9245 50.576 57.9245 50.576 59.3919 49.5343C59.8723 49.1816 60.3528 48.829 60.8478 48.4656C61.7537 47.8599 62.6813 47.2792 63.6246 46.7204C63.7912 45.5791 63.8643 44.5416 63.8701 43.3975C63.875 43.0676 63.8798 42.7376 63.8848 42.3977C63.8923 41.6986 63.8957 40.9996 63.8954 40.3005C63.8986 39.2338 63.9251 38.169 63.9529 37.1026C63.9572 36.4231 63.9601 35.7436 63.9615 35.0641C63.972 34.7465 63.9825 34.429 63.9933 34.1018C63.9748 32.8641 63.9443 31.8744 62.9665 30.9395C62.2162 30.4223 61.4589 29.9129 60.7013 29.4041C60.1328 28.0279 60.2145 26.6692 60.2445 25.2104C60.2485 24.8246 60.2525 24.4389 60.2566 24.0414C60.4202 20.9953 61.3521 19.2194 63.8416 17.0595C65.3379 16.287 66.3065 16.2853 68.0096 16.4169C67.9461 15.6072 67.9461 15.6072 67.5224 14.6853C67.1304 14.4085 66.7385 14.1317 66.3348 13.8465C64.9411 12.8499 64.5599 12.3094 64.1118 10.7891C63.9345 9.24546 63.9025 8.4862 64.8426 7.16353C65.0838 6.93138 65.325 6.69923 65.5735 6.46005Z" fill="#0D0C0C"/>
<path d="M175.229 85.8444C175.54 86.0766 175.852 86.3087 176.173 86.5479C176.173 86.8336 176.173 87.1194 176.173 87.4137C176.494 87.4137 176.816 87.4137 177.147 87.4137C177.147 86.6994 177.147 85.9851 177.147 85.2492C178.594 85.2492 180.041 85.2492 181.532 85.2492C181.532 90.3921 181.532 95.5351 181.532 100.834C180.085 100.834 178.638 100.834 177.147 100.834C176.986 100.262 176.825 99.691 176.66 99.1022C176.288 99.3879 175.916 99.6737 175.533 99.968C173.332 101.276 170.922 101.114 168.377 100.834C166.119 100.065 165.175 98.7778 163.992 96.9377C163.092 94.3913 163.211 91.7621 164.053 89.2265C166.465 85.5825 170.785 84.072 175.229 85.8444Z" fill="#050505"/>
<path d="M128.425 59.8159C128.837 59.8449 129.249 59.8739 129.673 59.9038C131.03 60.1742 131.766 60.6404 132.81 61.4393C132.971 61.0107 133.131 60.5822 133.297 60.1406C134.744 60.1406 136.191 60.1406 137.682 60.1406C137.682 65.1407 137.682 70.1407 137.682 75.2923C136.235 75.2923 134.788 75.2923 133.297 75.2923C133.297 74.7209 133.297 74.1495 133.297 73.5607C132.845 73.8464 132.393 74.1322 131.927 74.4265C129.546 75.6195 127.19 75.7481 124.527 75.2923C122.43 74.3369 121.348 73.0466 120.173 71.2609C119.248 68.411 119.3 65.834 120.605 63.0813C121.612 61.5537 123.046 60.4435 124.955 59.8616C126.161 59.682 127.208 59.717 128.425 59.8159Z" fill="#080808"/>
<path d="M120.142 85.2492C121.589 85.2492 123.036 85.2492 124.527 85.2492C124.688 85.6778 124.849 86.1064 125.014 86.5479C125.326 86.3336 125.637 86.1193 125.958 85.8986C127.959 85.028 129.644 84.9223 131.835 85.2492C133.449 86.115 133.449 86.115 134.759 86.9808C136.719 87.1531 136.719 87.1531 138.017 86.115C140.097 84.9989 141.642 84.878 144.016 85.2492C146.243 86.2199 147.977 87.4966 148.888 89.5783C149.126 91.513 149.072 93.4252 149.01 95.3684C149.001 95.8935 148.992 96.4186 148.983 96.9597C148.96 98.2514 148.928 99.5425 148.888 100.834C147.441 100.834 145.994 100.834 144.503 100.834C144.496 100.526 144.489 100.218 144.482 99.9007C144.445 98.507 144.398 97.1136 144.351 95.7201C144.334 94.9932 144.334 94.9932 144.318 94.2515C144.3 93.7869 144.283 93.3223 144.265 92.8437C144.253 92.4152 144.24 91.9867 144.227 91.5453C143.987 90.2924 143.689 89.8933 142.554 89.1454C141.607 88.9413 141.607 88.9413 140.605 88.983C140.274 88.9797 139.942 88.9763 139.601 88.9729C138.346 89.2021 137.977 89.5465 137.195 90.4441C136.949 91.5726 136.949 91.5726 136.946 92.8437C136.928 93.3083 136.911 93.7728 136.893 94.2515C136.882 94.7361 136.871 95.2208 136.86 95.7201C136.843 96.2098 136.827 96.6995 136.809 97.204C136.769 98.4139 136.736 99.6237 136.708 100.834C135.261 100.834 133.814 100.834 132.323 100.834C132.316 100.526 132.308 100.218 132.301 99.9007C132.265 98.507 132.218 97.1136 132.17 95.7201C132.159 95.2355 132.148 94.7508 132.137 94.2515C132.111 93.5546 132.111 93.5546 132.085 92.8437C132.072 92.4152 132.059 91.9867 132.046 91.5453C131.806 90.2924 131.509 89.8933 130.374 89.1454C129.426 88.9413 129.426 88.9413 128.425 88.983C128.093 88.9797 127.762 88.9763 127.42 88.9729C126.166 89.2021 125.797 89.5465 125.014 90.4441C124.768 91.5726 124.768 91.5726 124.765 92.8437C124.748 93.3083 124.731 93.7728 124.713 94.2515C124.702 94.7361 124.691 95.2208 124.679 95.7201C124.663 96.2098 124.646 96.6995 124.629 97.204C124.589 98.4139 124.555 99.6237 124.527 100.834C123.08 100.834 121.633 100.834 120.142 100.834C120.142 95.6909 120.142 90.548 120.142 85.2492Z" fill="#0A0A0A"/>
<path d="M23.6725 59.7077C34.6057 59.7077 45.539 59.7077 56.8035 59.7077C56.8035 61.9934 56.8035 64.2792 56.8035 66.6342C45.8703 66.6342 34.9371 66.6342 23.6725 66.6342C23.6725 64.3484 23.6725 62.0627 23.6725 59.7077Z" fill="#F3F5F2"/>
<path d="M29.5192 79.6214C33.0564 79.6214 36.5936 79.6214 40.238 79.6214C40.238 86.6215 40.238 93.6216 40.238 100.834C36.7008 100.834 33.1636 100.834 29.5192 100.834C29.5192 93.8337 29.5192 86.8336 29.5192 79.6214Z" fill="#938657"/>
<path d="M23.6725 66.6342C34.6057 66.6342 45.539 66.6342 56.8035 66.6342C56.8035 68.7771 56.8035 70.92 56.8035 73.1278C45.8703 73.1278 34.9371 73.1278 23.6725 73.1278C23.6725 70.9849 23.6725 68.842 23.6725 66.6342Z" fill="#918356"/>
<path d="M99.1917 56.2444C100.478 56.2444 101.764 56.2444 103.089 56.2444C103.089 58.8159 103.089 61.3874 103.089 64.0367C106.305 64.0367 109.521 64.0367 112.834 64.0367C112.834 61.4653 112.834 58.8938 112.834 56.2444C114.12 56.2444 115.406 56.2444 116.732 56.2444C116.732 62.5302 116.732 68.816 116.732 75.2923C115.445 75.2923 114.159 75.2923 112.834 75.2923C112.834 72.578 112.834 69.8637 112.834 67.0671C109.618 67.0671 106.403 67.0671 103.089 67.0671C103.089 69.7814 103.089 72.4958 103.089 75.2923C101.803 75.2923 100.517 75.2923 99.1917 75.2923C99.1917 69.0065 99.1917 62.7207 99.1917 56.2444Z" fill="#080808"/>
<path d="M60.7013 73.1278C63.113 73.1278 65.5247 73.1278 68.0096 73.1278C68.0096 81.1279 68.0096 89.128 68.0096 97.3706C65.5978 97.3706 63.1861 97.3706 60.7013 97.3706C60.7013 89.3705 60.7013 81.3703 60.7013 73.1278Z" fill="#F8F7F6"/>
<path d="M98.7045 81.353C100.152 81.353 101.599 81.353 103.089 81.353C103.097 81.7636 103.104 82.1742 103.111 82.5972C103.141 84.1238 103.177 85.6501 103.217 87.1766C103.234 87.8366 103.247 88.4967 103.258 89.1568C103.275 90.1069 103.3 91.0566 103.327 92.0066C103.34 92.5779 103.353 93.1492 103.366 93.7378C103.583 95.2514 103.819 95.8858 105.038 96.9377C106.207 97.1951 106.207 97.1951 107.474 97.1271C107.896 97.1265 108.319 97.126 108.753 97.1254C110.112 96.9049 110.532 96.5927 111.372 95.639C112.092 94.3607 111.968 93.1781 112.014 91.7529C112.024 91.4563 112.034 91.1597 112.044 90.854C112.076 89.9057 112.105 88.9574 112.133 88.009C112.155 87.3664 112.176 86.7238 112.197 86.0812C112.249 84.5052 112.299 82.9291 112.347 81.353C113.633 81.353 114.919 81.353 116.244 81.353C116.305 83.4553 116.349 85.5573 116.378 87.6601C116.39 88.3743 116.407 89.0886 116.428 89.8026C116.458 90.8334 116.472 91.8634 116.482 92.8944C116.495 93.2102 116.507 93.526 116.52 93.8513C116.522 95.9798 115.95 97.2215 114.508 98.9173C112.579 100.62 110.06 100.908 107.444 100.996C104.587 100.907 102.576 100.378 100.501 98.534C98.8937 96.2595 98.5846 94.2421 98.6093 91.5838C98.6107 91.2896 98.6121 90.9954 98.6135 90.6923C98.6189 89.7617 98.6311 88.8313 98.6436 87.9008C98.6485 87.266 98.6529 86.6313 98.6569 85.9966C98.6676 84.4487 98.6844 82.9009 98.7045 81.353Z" fill="#0C0C0C"/>
<path d="M184.942 80.0543C186.39 80.0543 187.837 80.0543 189.327 80.0543C189.488 82.3401 189.649 84.6258 189.815 86.9808C190.458 86.5522 191.101 86.1237 191.764 85.6821C194.048 85.0054 195.914 85.0227 198.189 85.7362C199.818 86.7012 200.818 87.5234 201.508 89.1454C201.747 91.1519 201.691 93.1371 201.63 95.1519C201.621 95.6977 201.612 96.2435 201.603 96.8058C201.58 98.1488 201.548 99.4912 201.508 100.834C200.222 100.834 198.935 100.834 197.61 100.834C197.603 100.557 197.596 100.28 197.589 99.9939C197.552 98.7314 197.505 97.4694 197.458 96.2072C197.447 95.771 197.436 95.3349 197.425 94.8856C197.343 91.7904 197.343 91.7904 195.661 89.1454C194.277 88.5305 193.296 88.5763 191.764 88.7125C190.454 89.6119 189.885 90.1391 189.549 91.5944C189.539 92.0206 189.528 92.4468 189.518 92.886C189.502 93.3491 189.486 93.8123 189.47 94.2895C189.46 95.0111 189.46 95.0111 189.449 95.7472C189.435 96.2349 189.42 96.7227 189.406 97.2252C189.371 98.4281 189.345 99.6307 189.327 100.834C187.88 100.834 186.433 100.834 184.942 100.834C184.942 93.9766 184.942 87.1194 184.942 80.0543Z" fill="#080808"/>
<path d="M149.375 60.1406C150.822 60.1406 152.269 60.1406 153.76 60.1406C153.821 62.9369 153.865 65.733 153.894 68.5297C153.906 69.4809 153.923 70.432 153.944 71.383C153.974 72.751 153.988 74.1186 153.998 75.4868C154.011 75.9112 154.023 76.3356 154.036 76.7729C154.037 78.7978 154.029 79.7392 152.619 81.395C150.535 82.7211 148.958 82.6938 146.452 82.6518C146.452 81.6517 146.452 80.6517 146.452 79.6214C147.658 79.4071 147.658 79.4071 148.888 79.1885C149.049 72.9027 149.21 66.6169 149.375 60.1406Z" fill="#0B0B0B"/>
<path d="M141.58 60.1406C142.866 60.1406 144.152 60.1406 145.478 60.1406C145.527 62.9369 145.561 65.7331 145.585 68.5297C145.594 69.4809 145.608 70.4319 145.625 71.383C145.648 72.751 145.659 74.1187 145.668 75.4868C145.678 75.9112 145.688 76.3356 145.698 76.7729C145.699 78.6542 145.681 79.7502 144.583 81.395C142.721 82.8505 141.041 82.6917 138.657 82.6518C138.657 81.6517 138.657 80.6517 138.657 79.6214C139.46 79.3357 140.264 79.05 141.093 78.7556C141.253 72.6126 141.414 66.4697 141.58 60.1406Z" fill="#080808"/>
<path d="M152.299 85.2492C153.746 85.2492 155.193 85.2492 156.684 85.2492C156.684 85.9635 156.684 86.6778 156.684 87.4137C157.005 87.4137 157.327 87.4137 157.658 87.4137C157.819 86.9851 157.98 86.5566 158.145 86.115C159.556 85.4882 160.456 85.2492 162.043 85.2492C162.043 86.5349 162.043 87.8207 162.043 89.1454C161.06 89.3286 160.076 89.5118 159.093 89.6949C157.965 89.9779 157.965 89.9779 157.171 91.3099C156.992 92.3563 156.992 92.3563 156.969 93.5201C156.941 94.1584 156.941 94.1584 156.912 94.8095C156.897 95.2529 156.882 95.6962 156.866 96.153C156.838 96.8256 156.838 96.8256 156.809 97.5118C156.763 98.6191 156.722 99.7263 156.684 100.834C155.237 100.834 153.79 100.834 152.299 100.834C152.299 95.6909 152.299 90.548 152.299 85.2492Z" fill="#080808"/>
<path d="M129.809 62.9528C130.861 63.1709 130.861 63.1709 132.353 63.9826C133.678 65.881 133.744 67.4852 133.297 69.6645C132.422 70.9348 131.863 71.6005 130.374 72.262C128.76 72.4243 128.76 72.4243 126.963 72.262C124.958 70.79 124.116 69.9049 123.857 67.6082C123.888 66.2534 124.111 65.3728 124.984 64.2532C126.726 62.9894 127.614 62.7998 129.809 62.9528Z" fill="#F2F2F2"/>
<path d="M173.658 88.4774C175.081 88.7952 175.93 89.436 176.749 90.5117C177.473 91.9643 177.588 93.2335 177.147 94.7732C176.285 96.0775 175.284 97.1162 173.736 97.8035C171.85 97.9898 171.045 97.9406 169.443 96.9918C167.946 95.6999 167.786 94.9324 167.707 93.1227C167.736 91.4982 167.84 90.9483 168.834 89.5242C170.562 88.5841 171.656 88.3675 173.658 88.4774Z" fill="#F2F2F2"/>
<path d="M196.636 85.2492C198.614 85.8696 199.969 86.6294 201.114 88.2189C202.039 90.3938 201.7 92.864 201.63 95.152C201.621 95.6977 201.612 96.2435 201.603 96.8058C201.58 98.1488 201.548 99.4912 201.508 100.834C200.222 100.834 198.935 100.834 197.61 100.834C197.598 100.561 197.586 100.289 197.573 100.008C197.516 98.7588 197.457 97.5101 197.397 96.2613C197.378 95.8324 197.359 95.4036 197.339 94.9617C197.229 92.7056 197.054 90.5075 196.636 88.2796C195.028 87.9938 193.42 87.7081 191.764 87.4137C191.764 86.9852 191.764 86.5566 191.764 86.115C193.587 85.0351 194.474 85.0864 196.636 85.2492Z" fill="#050505"/>
<path d="M60.7013 56.2444C64.3993 56.2444 68.0973 56.2444 71.9074 56.2444C71.9074 70.9589 71.9074 85.6735 71.9074 100.834C66.9231 100.834 61.9388 100.834 56.8035 100.834C56.8035 100.548 56.8035 100.262 56.8035 99.9681C61.4662 99.9681 66.1289 99.9681 70.9329 99.9681C70.9329 85.9678 70.9329 71.9676 70.9329 57.5431C67.7173 57.5431 64.5016 57.5431 61.1885 57.5431C61.0277 57.1146 60.8669 56.686 60.7013 56.2444Z" fill="#131111"/>
<path d="M60.7013 59.7077C63.113 59.7077 65.5247 59.7077 68.0096 59.7077C68.0096 61.9934 68.0096 64.2792 68.0096 66.6342C65.5978 66.6342 63.1861 66.6342 60.7013 66.6342C60.7013 64.3484 60.7013 62.0627 60.7013 59.7077Z" fill="#F4F3F1"/>
<path d="M60.7013 66.6342C63.113 66.6342 65.5247 66.6342 68.0096 66.6342C68.0096 68.7771 68.0096 70.92 68.0096 73.1278C65.5978 73.1278 63.1861 73.1278 60.7013 73.1278C60.7013 70.9849 60.7013 68.842 60.7013 66.6342Z" fill="#908259"/>
<path d="M75.8051 27.6725C75.6443 28.244 75.4835 28.8154 75.3179 29.4041C74.6747 29.547 74.0316 29.6899 73.369 29.8371C73.2935 32.3399 73.2574 34.84 73.256 37.3437C73.2502 38.1931 73.234 39.0426 73.207 39.8917C72.8617 45.1039 72.8617 45.1039 75.1989 49.6686C76.5796 50.8802 78.0685 51.8563 79.7029 52.7811C79.2205 52.9954 79.2205 52.9954 78.7284 53.214C77.8648 52.5926 77.0022 51.9701 76.1401 51.3471C75.6596 51.0006 75.1791 50.654 74.6841 50.297C71.9673 48.2743 71.9673 48.2743 71.7119 47.1873C71.7063 46.8737 71.7007 46.5601 71.695 46.237C71.6857 45.8801 71.6764 45.5231 71.6667 45.1554C71.6651 44.7712 71.6635 44.387 71.6618 43.9911C71.657 43.5945 71.6521 43.1979 71.6471 42.7893C71.6397 41.9502 71.6362 41.111 71.6365 40.2719C71.6333 38.9897 71.6068 37.709 71.579 36.4271C71.5747 35.6114 71.5718 34.7958 71.5705 33.9801C71.56 33.5976 71.5495 33.2152 71.5386 32.8211C71.5711 30.225 71.5711 30.225 72.5466 29.0995C74.3964 27.6725 74.3964 27.6725 75.8051 27.6725Z" fill="#282828"/>
<path d="M184.942 80.0543C186.39 80.0543 187.837 80.0543 189.327 80.0543C189.327 82.3401 189.327 84.6258 189.327 86.9808C189.167 86.9808 189.006 86.9808 188.84 86.9808C188.84 84.9808 188.84 82.9808 188.84 80.9201C187.876 80.9201 186.911 80.9201 185.917 80.9201C185.917 87.4917 185.917 94.0632 185.917 100.834C185.595 100.834 185.274 100.834 184.942 100.834C184.942 93.9766 184.942 87.1194 184.942 80.0543Z" fill="#363636"/>
<path d="M177.147 85.2492C178.594 85.2492 180.041 85.2492 181.532 85.2492C181.532 90.3921 181.532 95.5351 181.532 100.834C181.21 100.834 180.889 100.834 180.558 100.834C180.558 95.9766 180.558 91.1194 180.558 86.115C179.593 86.115 178.628 86.115 177.634 86.115C177.473 86.5436 177.313 86.9722 177.147 87.4137C177.147 86.6994 177.147 85.9851 177.147 85.2492Z" fill="#3C3C3C"/>
<path d="M152.299 85.2492C153.746 85.2492 155.193 85.2492 156.684 85.2492C156.684 85.9635 156.684 86.6778 156.684 87.4137C156.523 86.9851 156.362 86.5566 156.196 86.115C155.232 86.115 154.267 86.115 153.273 86.115C153.273 90.9722 153.273 95.8294 153.273 100.834C152.952 100.834 152.63 100.834 152.299 100.834C152.299 95.6909 152.299 90.548 152.299 85.2492Z" fill="#383838"/>
<path d="M151.812 53.5117C152.294 53.5563 152.776 53.601 153.273 53.647C154.248 54.9457 154.248 54.9457 154.126 56.055C153.76 57.1102 153.76 57.1102 152.786 57.976C151.388 58.1353 150.638 58.1384 149.436 57.462C148.888 56.6773 148.888 56.6773 148.98 55.568C149.563 54.0139 149.963 53.6827 151.812 53.5117Z" fill="#0A0A0A"/>
<path d="M143.529 53.5387C144.99 53.647 144.99 53.647 145.965 54.5128C146.117 55.8115 146.117 55.8115 145.965 57.1102C144.503 57.976 144.503 57.976 142.95 57.8137C142.272 57.6798 142.272 57.6798 141.58 57.5431C141.275 56.0821 141.275 56.0821 141.093 54.5128C142.067 53.647 142.067 53.647 143.529 53.5387Z" fill="#060606"/>
<path d="M48.5208 83.0847C49.9261 83.6444 50.8946 84.2359 51.9313 85.2492C51.3013 86.4979 50.6356 87.3584 49.4952 88.2795C48.0899 87.7198 47.1214 87.1283 46.0847 86.115C46.7146 84.8663 47.3804 84.0058 48.5208 83.0847Z" fill="#948961"/>
<path d="M141.58 63.6038C141.741 63.6038 141.901 63.6038 142.067 63.6038C142.091 65.7995 142.109 67.9952 142.121 70.191C142.126 70.938 142.132 71.685 142.141 72.432C142.152 73.5056 142.158 74.579 142.162 75.6525C142.167 75.9867 142.172 76.3209 142.177 76.6652C142.178 78.3196 142.151 79.0765 141.093 80.4872C140.61 80.4872 140.128 80.4872 139.631 80.4872C139.631 80.9158 139.631 81.3444 139.631 81.7859C140.353 81.6642 141.073 81.5369 141.793 81.4072C142.395 81.3017 142.395 81.3017 143.009 81.1941C143.341 81.1037 143.674 81.0133 144.016 80.9201C144.177 80.6344 144.338 80.3487 144.503 80.0543C144.34 81.1449 144.224 81.6439 143.224 82.3271C141.677 82.7613 140.268 82.7068 138.657 82.6518C138.657 81.6517 138.657 80.6517 138.657 79.6214C139.46 79.3357 140.264 79.05 141.093 78.7556C141.253 73.7555 141.414 68.7554 141.58 63.6038Z" fill="#030303"/>
<path d="M143.042 85.2492C145.812 85.8217 146.782 86.7399 148.401 88.7125C149.062 89.8874 148.943 90.8114 148.936 92.125C148.934 92.63 148.933 93.135 148.931 93.6554C148.927 94.185 148.923 94.7145 148.919 95.2602C148.916 95.7931 148.914 96.326 148.912 96.8751C148.906 98.1947 148.898 99.5143 148.888 100.834C148.567 100.834 148.245 100.834 147.914 100.834C147.904 100.52 147.894 100.205 147.884 99.8816C147.838 98.4492 147.785 97.0171 147.731 95.5849C147.716 95.0904 147.701 94.596 147.685 94.0866C147.667 93.6067 147.648 93.1268 147.628 92.6323C147.613 92.1925 147.598 91.7527 147.582 91.2995C147.41 89.8762 147.106 88.7237 146.452 87.4137C144.735 86.7816 144.735 86.7816 143.042 86.5479C143.042 86.1193 143.042 85.6908 143.042 85.2492Z" fill="#222222"/>
<path d="M75.3179 17.2827C75.8679 17.6865 76.4156 18.0929 76.9623 18.5003C77.2675 18.7263 77.5727 18.9523 77.8872 19.1852C78.916 20.0351 79.6409 20.7617 79.829 22.0279C79.8301 22.3421 79.8312 22.6562 79.8323 22.9799C79.8336 23.3234 79.8348 23.6668 79.8361 24.0207C79.8323 24.3776 79.8286 24.7345 79.8247 25.1021C79.8285 25.4607 79.8322 25.8192 79.8361 26.1886C79.8349 26.5315 79.8336 26.8745 79.8323 27.2278C79.8312 27.5414 79.8301 27.8551 79.829 28.1782C79.7029 28.9712 79.7029 28.9712 78.7284 29.8371C78.2461 29.6942 77.7637 29.5513 77.2668 29.4042C77.4276 29.2613 77.5883 29.1184 77.754 28.9712C77.9167 27.6501 77.9124 26.3219 77.9367 24.9939C77.9549 24.6253 77.9731 24.2567 77.9919 23.877C78.022 21.9559 77.9699 20.7272 76.5245 19.2359C76.1263 18.8771 75.7282 18.5183 75.3179 18.1486C75.3179 17.8628 75.3179 17.5771 75.3179 17.2827Z" fill="#282828"/>
<path d="M198.585 86.115C201.483 88.6246 201.483 88.6246 201.563 90.3166C201.559 91.0443 201.559 91.0443 201.556 91.7868C201.553 92.5736 201.553 92.5736 201.551 93.3763C201.547 93.9266 201.543 94.4768 201.538 95.0437C201.536 95.5973 201.534 96.1509 201.532 96.7212C201.526 98.0921 201.518 99.463 201.508 100.834C201.186 100.834 200.865 100.834 200.534 100.834C200.526 100.535 200.519 100.236 200.512 99.9282C200.476 98.5614 200.428 97.1949 200.381 95.8284C200.37 95.3582 200.359 94.8881 200.348 94.4037C200.247 91.7305 199.931 89.8023 198.585 87.4137C198.585 86.9851 198.585 86.5566 198.585 86.115Z" fill="#171717"/>
<path d="M63.1374 22.0447C63.2981 22.0447 63.4589 22.0447 63.6246 22.0447C63.6246 23.7591 63.6246 25.4734 63.6246 27.2396C64.2677 27.5253 64.9108 27.8111 65.5735 28.1054C66.6645 28.7662 66.6645 28.7662 67.5223 29.8371C67.7615 31.2253 67.6807 32.5842 67.6061 33.9835C67.5925 34.3846 67.5789 34.7858 67.565 35.199C67.5195 36.4786 67.4602 37.7573 67.4005 39.0364C67.3673 39.9044 67.3349 40.7725 67.3035 41.6406C67.2245 43.7672 67.1331 45.8932 67.0351 48.0192C66.8743 48.0192 66.7136 48.0192 66.5479 48.0192C66.5485 47.4797 66.549 46.9403 66.5496 46.3845C66.5478 44.3794 66.5269 42.3748 66.5003 40.3698C66.4915 39.5028 66.4878 38.6357 66.4894 37.7686C66.4908 36.5206 66.4736 35.2737 66.4527 34.0258C66.4572 33.6392 66.4616 33.2527 66.4662 32.8545C66.4594 30.8422 66.4594 30.8422 65.3939 29.1474C64.662 28.6322 63.9008 28.1503 63.1374 27.6725C62.8519 26.2301 62.8519 26.2301 62.9547 24.7234C62.981 24.2206 63.0074 23.7178 63.0346 23.1997C63.0685 22.8186 63.1024 22.4374 63.1374 22.0447Z" fill="#141414"/>
<path d="M144.503 90.4441C144.825 90.4441 145.146 90.4441 145.478 90.4441C146.062 91.4833 146.021 92.1297 146.012 93.2884C146.011 93.6763 146.009 94.0641 146.008 94.4637C146.004 94.8694 146 95.2751 145.995 95.6931C145.993 96.1021 145.991 96.5112 145.989 96.9326C145.983 97.9445 145.975 98.9562 145.965 99.9681C145.643 99.9681 145.322 99.9681 144.99 99.9681C144.83 100.254 144.669 100.539 144.503 100.834C144.503 97.4052 144.503 93.9766 144.503 90.4441Z" fill="#0E0E0E"/>
<path d="M177.634 91.3099C177.795 91.3099 177.956 91.3099 178.121 91.3099C178.279 93.6925 178.381 95.3951 176.66 97.3706C176.901 97.5403 177.142 97.7099 177.391 97.8847C178.344 98.9078 178.239 99.5414 178.121 100.834C177.8 100.834 177.478 100.834 177.147 100.834C176.825 100.262 176.504 99.691 176.173 99.1022C175.851 99.1022 175.529 99.1022 175.198 99.1022C175.198 98.8165 175.198 98.5308 175.198 98.2364C174.877 98.3793 174.555 98.5221 174.224 98.6693C173.087 98.6867 171.95 98.688 170.813 98.6693C170.813 98.5265 170.813 98.3836 170.813 98.2364C171.778 98.2364 172.743 98.2364 173.736 98.2364C173.736 97.9507 173.736 97.665 173.736 97.3706C174.54 96.7845 175.353 96.2075 176.173 95.639C176.333 95.3533 176.494 95.0675 176.66 94.7732C176.981 94.7732 177.303 94.7732 177.634 94.7732C177.634 93.6303 177.634 92.4874 177.634 91.3099Z" fill="#111111"/>
<path d="M60.7013 21.1789C61.0229 21.1789 61.3444 21.1789 61.6757 21.1789C61.6826 21.7163 61.6895 22.2537 61.6967 22.8074C61.7195 23.5182 61.743 24.229 61.7671 24.9398C61.7699 25.2933 61.7727 25.6468 61.7756 26.0111C61.8496 27.8148 61.9271 28.9917 63.4057 30.3055C63.7995 30.5795 64.1933 30.8535 64.5991 31.1358C63.1374 31.1358 63.1374 31.1358 61.8375 30.5338C60.143 28.8491 60.4314 27.3606 60.549 25.1833C60.56 24.7988 60.571 24.4143 60.5823 24.0182C60.611 23.071 60.651 22.1253 60.7013 21.1789Z" fill="#101010"/>
<path d="M192.038 86.088C192.626 86.1013 192.626 86.1013 193.225 86.115C192.904 86.4007 192.582 86.6864 192.251 86.9808C193.065 87.1817 193.065 87.1817 193.895 87.3867C195.661 87.8466 195.661 87.8466 196.636 88.2795C196.475 88.7081 196.314 89.1367 196.149 89.5783C195.666 89.2925 195.184 89.0068 194.687 88.7125C192.702 88.5654 191.993 88.5768 190.302 89.5783C190.302 86.1256 190.302 86.1256 192.038 86.088Z" fill="#151515"/>
<path d="M103.089 96.0719C103.478 96.2845 103.478 96.2845 103.874 96.5014C105.344 97.0521 106.494 97.0225 108.083 96.9918C108.871 96.9801 108.871 96.9801 109.675 96.9681C110.074 96.9581 110.473 96.948 110.885 96.9377C110.398 98.2364 110.398 98.2364 109.423 98.6693C107.302 98.8505 106.23 98.7744 104.338 97.8576C103.926 97.5541 103.514 97.2505 103.089 96.9377C103.089 96.652 103.089 96.3663 103.089 96.0719Z" fill="#1C1B1C"/>
<path d="M142.067 87.4137C142.389 87.5566 142.71 87.6995 143.042 87.8466C142.881 88.2752 142.72 88.7038 142.554 89.1454C141.635 89.1052 141.635 89.1052 140.697 89.0642C139.079 89.0328 139.079 89.0328 137.743 89.7947C137.562 90.009 137.381 90.2233 137.195 90.4441C136.873 90.4441 136.552 90.4441 136.22 90.4441C136.06 90.7298 135.899 91.0155 135.733 91.3099C135.854 89.8624 136.356 89.4546 137.53 88.3878C139.043 87.3313 140.133 87.1794 142.067 87.4137Z" fill="#202020"/>
<path d="M162.043 85.2492C162.043 86.5349 162.043 87.8207 162.043 89.1454C160.918 89.2882 159.792 89.4311 158.633 89.5783C158.633 89.1497 158.633 88.7211 158.633 88.2795C159.436 88.2795 160.24 88.2795 161.069 88.2795C161.069 87.7081 161.069 87.1367 161.069 86.5479C160.426 86.4051 159.782 86.2622 159.12 86.115C160.581 85.2492 160.581 85.2492 162.043 85.2492Z" fill="#101010"/>
<path d="M166.915 86.115C167.237 86.4007 167.558 86.6864 167.89 86.9808C167.407 87.1237 166.925 87.2665 166.428 87.4137C165.116 89.691 164.737 92.2561 164.479 94.7732C164.318 94.7732 164.158 94.7732 163.992 94.7732C163.422 92.0806 163.386 90.3161 164.966 87.8466C166.032 86.7914 166.032 86.7914 166.915 86.115Z" fill="#171717"/>
<path d="M143.559 53.5658C144.99 53.647 144.99 53.647 145.478 54.0799C145.498 54.9455 145.498 55.8117 145.478 56.6773C145.156 56.1059 144.835 55.5344 144.503 54.9457C143.86 54.9457 143.217 54.9457 142.554 54.9457C142.394 55.5171 142.233 56.0886 142.067 56.6773C142.389 56.8202 142.71 56.963 143.042 57.1102C142.559 57.2531 142.077 57.3959 141.58 57.5431C141.275 56.0821 141.275 56.0821 141.093 54.5128C142.067 53.647 142.067 53.647 143.559 53.5658Z" fill="#171717"/>
<path d="M149.375 54.5128C149.697 54.5128 150.019 54.5128 150.35 54.5128C150.35 55.2271 150.35 55.9414 150.35 56.6773C151.315 56.6773 152.279 56.6773 153.273 56.6773C153.112 57.1059 152.952 57.5345 152.786 57.976C151.42 58.0745 150.612 58.1236 149.436 57.462C148.888 56.6773 148.888 56.6773 149.04 55.5139C149.151 55.1835 149.262 54.8532 149.375 54.5128Z" fill="#1C1C1C"/>
<path d="M166.915 90.877C168.222 92.0376 168.078 92.7782 168.194 94.3944C168.231 94.8687 168.267 95.343 168.305 95.8318C168.329 96.1967 168.352 96.5617 168.377 96.9377C167.407 96.2174 166.959 95.7947 166.649 94.6903C166.616 94.3516 166.584 94.0128 166.55 93.6638C166.512 93.324 166.475 92.9841 166.436 92.634C166.428 91.7428 166.428 91.7428 166.915 90.877Z" fill="#1E1E1E"/>
<path d="M130.861 87.8467C130.7 88.2752 130.539 88.7038 130.374 89.1454C128.605 89.1454 126.837 89.1454 125.014 89.1454C125.014 88.8597 125.014 88.5739 125.014 88.2796C127.123 87.3145 128.563 87.4463 130.861 87.8467Z" fill="#242424"/>
<path d="M165.454 97.3706C165.745 97.6385 166.037 97.9063 166.337 98.1823C168.509 99.4691 170.695 99.666 173.249 99.968C173.249 100.111 173.249 100.254 173.249 100.401C168.941 101.018 168.941 101.018 166.885 100.347C165.753 99.3731 165.579 98.7477 165.454 97.3706Z" fill="#1C1C1C"/>
<path d="M113.321 98.2364C113.643 98.5221 113.964 98.8079 114.296 99.1022C112.314 100.366 110.958 100.547 108.54 100.482C107.691 100.465 107.691 100.465 106.825 100.447C106.396 100.432 105.968 100.416 105.526 100.401C105.526 100.258 105.526 100.115 105.526 99.968C105.941 99.9438 105.941 99.9438 106.365 99.919C108.977 99.7214 110.966 99.2603 113.321 98.2364Z" fill="#1E1C1D"/>
<path d="M143.042 85.2492C145.803 85.8197 146.776 86.7588 148.401 88.7124C147.919 89.3553 147.919 89.3553 147.427 90.0112C147.336 89.6005 147.246 89.1897 147.152 88.7666C146.582 87.2476 146.582 87.2476 144.686 86.8185C144.143 86.7292 143.601 86.6399 143.042 86.5479C143.042 86.1193 143.042 85.6908 143.042 85.2492Z" fill="#171717"/>
<path d="M76.7795 47.1534C78.6341 48.5419 80.4559 49.9272 82.139 51.4824C80.2089 51.4824 79.7861 50.8985 78.3935 49.7508C77.9997 49.4294 77.6059 49.1079 77.2002 48.7768C76.9006 48.5267 76.601 48.2767 76.2923 48.0192C76.4531 47.7334 76.6139 47.4477 76.7795 47.1534Z" fill="#1C1C1C"/>
<path d="M173.736 87.4137C174.058 87.6995 174.38 87.9852 174.711 88.2796C174.012 88.4371 173.311 88.5895 172.61 88.7395C172.22 88.8249 171.83 88.9103 171.428 88.9982C170.326 89.1454 170.326 89.1454 168.864 88.7125C170.47 87.3951 171.573 87.2048 173.736 87.4137Z" fill="#212121"/>
<path d="M177.634 91.3099C177.795 91.3099 177.956 91.3099 178.121 91.3099C178.135 91.9322 178.144 92.5545 178.152 93.1768C178.158 93.5234 178.163 93.8699 178.169 94.227C178.121 95.2061 178.121 95.2061 177.634 96.5048C176.386 97.2353 176.386 97.2353 175.198 97.8035C175.198 96.2795 175.541 95.882 176.66 94.7732C176.981 94.7732 177.303 94.7732 177.634 94.7732C177.634 93.6303 177.634 92.4874 177.634 91.3099Z" fill="#1F1F1F"/>
<path d="M139.144 80.0543C139.626 80.2686 139.626 80.2686 140.118 80.4872C139.957 80.9158 139.797 81.3444 139.631 81.7859C140.353 81.6642 141.073 81.5369 141.793 81.4071C142.194 81.3368 142.596 81.2665 143.009 81.1941C143.341 81.1037 143.674 81.0133 144.016 80.9201C144.177 80.6344 144.338 80.3487 144.503 80.0543C144.442 80.866 144.442 80.866 144.016 81.7859C142.547 82.3949 141.551 82.716 139.936 82.4894C139.674 82.4001 139.413 82.3108 139.144 82.2188C139.144 81.5045 139.144 80.7902 139.144 80.0543Z" fill="#151515"/>
<path d="M62.1629 47.5863C62.6453 47.7291 63.1276 47.872 63.6246 48.0192C62.0168 49.3049 60.4089 50.5907 58.7524 51.9153C58.4308 51.6296 58.1093 51.3439 57.778 51.0495C59.225 49.9067 60.672 48.7638 62.1629 47.5863Z" fill="#1C1C1C"/>
<path d="M191.764 87.4137C194.991 87.3055 194.991 87.3055 196.636 88.2795C196.475 88.7081 196.314 89.1367 196.149 89.5783C195.666 89.2925 195.184 89.0068 194.687 88.7125C193.717 88.5436 192.743 88.3956 191.764 88.2795C191.764 87.9938 191.764 87.7081 191.764 87.4137Z" fill="#0E0E0E"/>
<path d="M172.762 85.2492C175.076 86.0609 175.076 86.0609 176.173 86.5479C176.173 86.8336 176.173 87.1194 176.173 87.4137C176.655 87.5566 177.137 87.6994 177.634 87.8466C177.152 87.9895 176.67 88.1324 176.173 88.2795C175.198 87.6843 175.198 87.6843 174.224 86.9808C173.741 86.838 173.259 86.6951 172.762 86.5479C172.762 86.1193 172.762 85.6908 172.762 85.2492Z" fill="#202020"/>
<path d="M124.04 60.1406C124.683 60.4263 125.326 60.712 125.989 61.0064C124.383 61.7521 122.904 62.4326 121.117 62.738C122.091 61.8722 123.066 61.0064 124.04 60.1406Z" fill="#202020"/>
<path d="M131.835 73.5607C131.675 73.9893 131.514 74.4179 131.348 74.8594C129.419 74.8594 127.489 74.8594 125.502 74.8594C125.502 74.7166 125.502 74.5737 125.502 74.4265C125.959 74.3872 125.959 74.3872 126.427 74.347C127.024 74.2926 127.024 74.2926 127.633 74.2371C128.029 74.202 128.425 74.1668 128.832 74.1306C129.958 73.9843 130.698 73.5607 131.835 73.5607Z" fill="#181818"/>
<path d="M124.04 69.2316C124.341 69.5798 124.643 69.9281 124.953 70.2868C125.863 71.4129 125.863 71.4129 126.963 71.8291C126.963 72.1148 126.963 72.4005 126.963 72.6949C125.558 72.1351 124.589 71.5436 123.553 70.5304C123.714 70.1018 123.874 69.6732 124.04 69.2316Z" fill="#181818"/>
<path d="M63.6246 17.7157C63.9462 18.0014 64.2677 18.2871 64.599 18.5815C63.7951 19.2958 62.9912 20.0101 62.1629 20.746C62.0022 20.3174 61.8414 19.8888 61.6757 19.4473C62.3189 18.8758 62.962 18.3044 63.6246 17.7157Z" fill="#222222"/>
<path d="M65.5735 6.46005C66.2166 6.88863 66.8598 7.31721 67.5224 7.75877C67.3616 8.33021 67.2008 8.90165 67.0352 9.4904C66.8744 9.06183 66.7136 8.63325 66.5479 8.19168C66.2264 8.04882 65.9048 7.90596 65.5735 7.75877C65.4127 8.04449 65.2519 8.33021 65.0863 8.62459C65.0863 6.89296 65.0863 6.89296 65.5735 6.46005Z" fill="#161616"/>
<path d="M172.34 77L168.074 77.0234C167.137 77.0234 166.309 76.7891 165.59 76.3203C164.879 75.8594 164.32 75.2773 163.914 74.5742C163.516 73.8711 163.316 73.168 163.316 72.4648V70.8828C163.316 70.3359 163.445 69.8086 163.703 69.3008C163.961 68.7852 164.297 68.3281 164.711 67.9297C164.375 67.5625 164.109 67.1133 163.914 66.582C163.727 66.043 163.633 65.4453 163.633 64.7891C163.633 63.9609 163.828 63.2031 164.219 62.5156C164.609 61.8359 165.137 61.2969 165.801 60.8984C166.465 60.5 167.203 60.3008 168.016 60.3008H171.262C171.371 60.3008 171.426 60.3555 171.426 60.4648V63.0078C171.426 63.1016 171.379 63.1484 171.285 63.1484H168.016C167.617 63.1484 167.27 63.3086 166.973 63.6289C166.676 63.9492 166.527 64.3359 166.527 64.7891C166.527 65.3281 166.652 65.75 166.902 66.0547C167.152 66.3594 167.523 66.5117 168.016 66.5117H174.543C174.629 66.5117 174.672 66.5508 174.672 66.6289V69.3008C174.672 69.3633 174.641 69.3945 174.578 69.3945H172.457L172.434 76.9062C172.434 76.9688 172.402 77 172.34 77ZM168.074 74.1406L169.633 74.1172L169.656 69.3945H167.992C167.656 69.3945 167.352 69.4766 167.078 69.6406C166.477 70.0078 166.176 70.4219 166.176 70.8828V72.4648C166.176 72.6992 166.254 72.9492 166.41 73.2148C166.566 73.4805 166.785 73.7031 167.066 73.8828C167.348 74.0547 167.684 74.1406 168.074 74.1406Z" fill="#918356"/>
<path d="M13.4766 130H10.7578C10.6953 130 10.6641 129.961 10.6641 129.883L10.7109 113.395C10.7109 113.332 10.7422 113.301 10.8047 113.301H13.7344C13.7969 113.301 13.8516 113.332 13.8984 113.395L16.0898 116.559L18.2695 113.395C18.3164 113.332 18.375 113.301 18.4453 113.301H21.3867C21.457 113.301 21.4922 113.332 21.4922 113.395L21.5391 129.883C21.5391 129.961 21.5078 130 21.4453 130H18.7266C18.6641 130 18.6328 129.961 18.6328 129.883L18.6094 117.637L16.0898 121.293L13.5938 117.637L13.5703 129.883C13.5703 129.961 13.5391 130 13.4766 130ZM22.7461 129.883L25.7227 113.395C25.7383 113.332 25.7773 113.301 25.8398 113.301H29.3203C29.3828 113.301 29.4219 113.332 29.4375 113.395L32.2969 129.883C32.3047 129.961 32.2734 130 32.2031 130H29.543C29.4648 130 29.4219 129.961 29.4141 129.883L29.1562 128.125H25.8867L25.6289 129.883C25.6211 129.961 25.582 130 25.5117 130H22.8398C22.7773 130 22.7461 129.961 22.7461 129.883ZM27.4453 118.82L26.3672 125.559H28.6758L27.6914 118.82L27.5508 117.93L27.4453 118.82ZM38.2148 129.977L33.9141 130C33.8359 130 33.7969 129.961 33.7969 129.883L33.8438 113.395C33.8438 113.332 33.875 113.301 33.9375 113.301L38.4258 113.277C39.3164 113.254 40.1211 113.457 40.8398 113.887C41.5664 114.316 42.1445 114.898 42.5742 115.633C43.0117 116.359 43.2305 117.164 43.2305 118.047V124.938C43.2305 125.859 43.0078 126.703 42.5625 127.469C42.1094 128.227 41.5078 128.832 40.7578 129.285C40.0078 129.73 39.1602 129.961 38.2148 129.977ZM38.4258 116.148L36.75 116.172L36.7266 127.047H38.2148C38.8086 127.047 39.3086 126.84 39.7148 126.426C40.1211 126.012 40.3242 125.516 40.3242 124.938V118.023C40.3242 117.516 40.1367 117.074 39.7617 116.699C39.3867 116.316 38.9414 116.133 38.4258 116.148ZM49.3945 130H46.6406C46.5859 130 46.5586 129.969 46.5586 129.906L46.582 123.086L43.3711 113.395C43.3555 113.332 43.3789 113.301 43.4414 113.301H46.1133C46.1914 113.301 46.2383 113.332 46.2539 113.395L48.0234 119.852L49.8281 113.395C49.8438 113.332 49.8828 113.301 49.9453 113.301H52.6406C52.7031 113.301 52.7266 113.332 52.7109 113.395L49.4648 122.992L49.4883 129.906C49.4883 129.969 49.457 130 49.3945 130ZM51.5273 129.883L54.5039 113.395C54.5195 113.332 54.5586 113.301 54.6211 113.301H58.1016C58.1641 113.301 58.2031 113.332 58.2188 113.395L61.0781 129.883C61.0859 129.961 61.0547 130 60.9844 130H58.3242C58.2461 130 58.2031 129.961 58.1953 129.883L57.9375 128.125H54.668L54.4102 129.883C54.4023 129.961 54.3633 130 54.293 130H51.6211C51.5586 130 51.5273 129.961 51.5273 129.883ZM56.2266 118.82L55.1484 125.559H57.457L56.4727 118.82L56.332 117.93L56.2266 118.82ZM65.1914 130H62.7891C62.6641 130 62.6016 129.945 62.6016 129.836L62.5781 113.488C62.5781 113.363 62.6406 113.301 62.7656 113.301H64.9336L68.9883 122.758L68.8711 113.488C68.8711 113.363 68.9414 113.301 69.082 113.301H71.4609C71.5547 113.301 71.6016 113.363 71.6016 113.488L71.625 129.859C71.625 129.953 71.5859 130 71.5078 130H69.3984L65.2383 121.164L65.4141 129.812C65.4141 129.938 65.3398 130 65.1914 130ZM85.0664 130H82.3594C82.2891 130 82.2539 129.961 82.2539 129.883V116.195H79.1367C79.0586 116.195 79.0195 116.156 79.0195 116.078L79.043 113.395C79.043 113.332 79.0742 113.301 79.1367 113.301H88.2539C88.3398 113.301 88.3828 113.332 88.3828 113.395V116.078C88.3828 116.156 88.3516 116.195 88.2891 116.195H85.1367L85.1602 129.883C85.1602 129.961 85.1289 130 85.0664 130ZM93.5039 130.234C92.6523 130.234 91.8672 130.016 91.1484 129.578C90.4375 129.141 89.8633 128.559 89.4258 127.832C88.9961 127.098 88.7812 126.293 88.7812 125.418L88.8047 117.812C88.8047 116.922 89.0195 116.121 89.4492 115.41C89.8711 114.691 90.4414 114.117 91.1602 113.688C91.8789 113.25 92.6602 113.031 93.5039 113.031C94.3789 113.031 95.1641 113.246 95.8594 113.676C96.5625 114.105 97.125 114.684 97.5469 115.41C97.9766 116.129 98.1914 116.93 98.1914 117.812L98.2148 125.418C98.2148 126.293 98.0039 127.094 97.582 127.82C97.1523 128.555 96.582 129.141 95.8711 129.578C95.1602 130.016 94.3711 130.234 93.5039 130.234ZM93.5039 127.34C93.9883 127.34 94.4102 127.145 94.7695 126.754C95.1289 126.355 95.3086 125.91 95.3086 125.418L95.2852 117.812C95.2852 117.281 95.1172 116.832 94.7812 116.465C94.4453 116.098 94.0195 115.914 93.5039 115.914C93.0117 115.914 92.5898 116.094 92.2383 116.453C91.8867 116.812 91.7109 117.266 91.7109 117.812V125.418C91.7109 125.941 91.8867 126.395 92.2383 126.777C92.5898 127.152 93.0117 127.34 93.5039 127.34ZM104.449 130.234C103.605 130.234 102.824 130.016 102.105 129.578C101.387 129.141 100.812 128.555 100.383 127.82C99.9609 127.078 99.75 126.27 99.75 125.395L99.7969 113.395C99.7969 113.332 99.8281 113.301 99.8906 113.301H102.586C102.648 113.301 102.68 113.332 102.68 113.395V125.395C102.68 125.934 102.852 126.395 103.195 126.777C103.539 127.152 103.957 127.34 104.449 127.34C104.965 127.34 105.395 127.152 105.738 126.777C106.082 126.395 106.254 125.934 106.254 125.395V113.395C106.254 113.332 106.285 113.301 106.348 113.301H109.043C109.105 113.301 109.137 113.332 109.137 113.395L109.184 125.395C109.184 126.277 108.973 127.09 108.551 127.832C108.121 128.566 107.551 129.152 106.84 129.59C106.129 130.02 105.332 130.234 104.449 130.234ZM113.883 130H111.164C111.102 130 111.07 129.961 111.07 129.883L111.117 113.395C111.117 113.332 111.148 113.301 111.211 113.301H116.062C116.93 113.301 117.727 113.512 118.453 113.934C119.18 114.355 119.758 114.922 120.188 115.633C120.625 116.344 120.844 117.148 120.844 118.047C120.844 118.633 120.754 119.164 120.574 119.641C120.395 120.117 120.184 120.52 119.941 120.848C119.707 121.176 119.492 121.418 119.297 121.574C120.164 122.535 120.598 123.664 120.598 124.961L120.621 129.883C120.621 129.961 120.582 130 120.504 130H117.785C117.723 130 117.691 129.977 117.691 129.93V124.961C117.691 124.383 117.488 123.883 117.082 123.461C116.676 123.039 116.176 122.828 115.582 122.828H114L113.977 129.883C113.977 129.961 113.945 130 113.883 130ZM116.062 116.172H114V119.945H116.062C116.555 119.945 116.992 119.762 117.375 119.395C117.766 119.027 117.961 118.578 117.961 118.047C117.961 117.539 117.773 117.102 117.398 116.734C117.023 116.359 116.578 116.172 116.062 116.172ZM126.727 130.234C125.875 130.234 125.09 130.016 124.371 129.578C123.66 129.141 123.09 128.559 122.66 127.832C122.238 127.098 122.027 126.293 122.027 125.418V124.316C122.027 124.23 122.066 124.188 122.145 124.188H124.84C124.902 124.188 124.934 124.23 124.934 124.316V125.418C124.934 125.941 125.109 126.395 125.461 126.777C125.812 127.152 126.234 127.34 126.727 127.34C127.227 127.34 127.652 127.148 128.004 126.766C128.355 126.375 128.531 125.926 128.531 125.418C128.531 124.832 128.148 124.32 127.383 123.883C127.258 123.805 127.094 123.711 126.891 123.602C126.695 123.484 126.461 123.352 126.188 123.203C125.914 123.055 125.648 122.91 125.391 122.77C125.133 122.621 124.883 122.48 124.641 122.348C123.766 121.832 123.113 121.188 122.684 120.414C122.262 119.633 122.051 118.758 122.051 117.789C122.051 116.898 122.27 116.094 122.707 115.375C123.145 114.664 123.715 114.102 124.418 113.688C125.129 113.266 125.898 113.055 126.727 113.055C127.578 113.055 128.359 113.266 129.07 113.688C129.781 114.117 130.348 114.688 130.77 115.398C131.199 116.109 131.414 116.906 131.414 117.789V119.758C131.414 119.82 131.383 119.852 131.32 119.852H128.625C128.562 119.852 128.531 119.82 128.531 119.758L128.508 117.789C128.508 117.227 128.332 116.77 127.98 116.418C127.629 116.066 127.211 115.891 126.727 115.891C126.234 115.891 125.812 116.078 125.461 116.453C125.109 116.828 124.934 117.273 124.934 117.789C124.934 118.312 125.043 118.75 125.262 119.102C125.488 119.453 125.898 119.789 126.492 120.109C126.555 120.141 126.699 120.219 126.926 120.344C127.152 120.469 127.402 120.609 127.676 120.766C127.957 120.914 128.211 121.051 128.438 121.176C128.664 121.293 128.801 121.363 128.848 121.387C129.645 121.832 130.273 122.379 130.734 123.027C131.203 123.676 131.438 124.473 131.438 125.418C131.438 126.332 131.227 127.152 130.805 127.879C130.375 128.605 129.805 129.18 129.094 129.602C128.383 130.023 127.594 130.234 126.727 130.234Z" fill="black"/>
<path d="M141.278 130.222C140.716 130.222 140.233 130.023 139.829 129.625C139.431 129.222 139.233 128.739 139.233 128.176C139.233 127.619 139.431 127.142 139.829 126.744C140.233 126.347 140.716 126.148 141.278 126.148C141.824 126.148 142.301 126.347 142.71 126.744C143.119 127.142 143.324 127.619 143.324 128.176C143.324 128.551 143.227 128.895 143.034 129.207C142.846 129.514 142.599 129.761 142.292 129.949C141.985 130.131 141.647 130.222 141.278 130.222ZM156.953 130.256C155.613 130.256 154.459 129.972 153.493 129.403C152.533 128.83 151.794 128.034 151.277 127.017C150.766 126 150.51 124.83 150.51 123.506C150.51 122.165 150.769 120.989 151.286 119.977C151.809 118.96 152.55 118.168 153.51 117.599C154.471 117.026 155.613 116.739 156.936 116.739C158.078 116.739 159.078 116.946 159.936 117.361C160.794 117.776 161.473 118.358 161.973 119.108C162.473 119.858 162.749 120.739 162.8 121.75H159.374C159.277 121.097 159.022 120.571 158.607 120.173C158.198 119.77 157.661 119.568 156.996 119.568C156.434 119.568 155.942 119.722 155.522 120.028C155.107 120.33 154.783 120.77 154.55 121.349C154.317 121.929 154.201 122.631 154.201 123.455C154.201 124.29 154.314 125 154.542 125.585C154.775 126.17 155.101 126.616 155.522 126.923C155.942 127.23 156.434 127.384 156.996 127.384C157.411 127.384 157.783 127.298 158.113 127.128C158.448 126.957 158.723 126.71 158.939 126.386C159.161 126.057 159.306 125.662 159.374 125.202H162.8C162.743 126.202 162.471 127.082 161.982 127.844C161.499 128.599 160.831 129.19 159.979 129.616C159.127 130.043 158.118 130.256 156.953 130.256ZM171.039 130.256C169.716 130.256 168.571 129.974 167.605 129.412C166.645 128.844 165.903 128.054 165.38 127.043C164.858 126.026 164.596 124.847 164.596 123.506C164.596 122.153 164.858 120.972 165.38 119.96C165.903 118.943 166.645 118.153 167.605 117.591C168.571 117.023 169.716 116.739 171.039 116.739C172.363 116.739 173.505 117.023 174.466 117.591C175.431 118.153 176.176 118.943 176.699 119.96C177.221 120.972 177.483 122.153 177.483 123.506C177.483 124.847 177.221 126.026 176.699 127.043C176.176 128.054 175.431 128.844 174.466 129.412C173.505 129.974 172.363 130.256 171.039 130.256ZM171.056 127.443C171.659 127.443 172.162 127.273 172.565 126.932C172.968 126.585 173.272 126.114 173.477 125.517C173.687 124.92 173.792 124.241 173.792 123.48C173.792 122.719 173.687 122.04 173.477 121.443C173.272 120.847 172.968 120.375 172.565 120.028C172.162 119.682 171.659 119.509 171.056 119.509C170.449 119.509 169.937 119.682 169.522 120.028C169.113 120.375 168.804 120.847 168.593 121.443C168.389 122.04 168.287 122.719 168.287 123.48C168.287 124.241 168.389 124.92 168.593 125.517C168.804 126.114 169.113 126.585 169.522 126.932C169.937 127.273 170.449 127.443 171.056 127.443ZM179.843 130V116.909H183.304V119.219H183.457C183.73 118.452 184.184 117.847 184.821 117.403C185.457 116.96 186.218 116.739 187.105 116.739C188.002 116.739 188.767 116.963 189.397 117.412C190.028 117.855 190.449 118.457 190.659 119.219H190.795C191.062 118.469 191.545 117.869 192.244 117.42C192.949 116.966 193.781 116.739 194.741 116.739C195.963 116.739 196.954 117.128 197.716 117.906C198.483 118.679 198.866 119.776 198.866 121.196V130H195.244V121.912C195.244 121.185 195.051 120.639 194.664 120.276C194.278 119.912 193.795 119.73 193.216 119.73C192.556 119.73 192.042 119.94 191.673 120.361C191.304 120.776 191.119 121.324 191.119 122.006V130H187.599V121.835C187.599 121.193 187.414 120.682 187.045 120.301C186.681 119.92 186.201 119.73 185.605 119.73C185.201 119.73 184.838 119.832 184.514 120.037C184.196 120.236 183.943 120.517 183.755 120.881C183.568 121.239 183.474 121.659 183.474 122.142V130H179.843Z" fill="#918356"/>
</g>
<defs>
<clipPath id="clip0_5_94">
<rect width="210" height="132" fill="white"/>
</clipPath>
</defs>
</svg>
